<?xml version="1.0" encoding="utf-8"?>
<svg width="32px" height="32px" viewBox="0 0 32 32" version="1.1" xmlns:xlink="http://www.w3.org/1999/xlink" xmlns="http://www.w3.org/2000/svg">
  <desc>Created with Lunacy</desc>
  <defs>
    <linearGradient x1="0.972666442" y1="0.02908564" x2="0.02220247" y2="0.956029654" id="gradient_1">
      <stop offset="0" stop-color="#1042CD" />
      <stop offset="1" stop-color="#2BEDFF" />
    </linearGradient>
  </defs>
  <path d="M19.6111 12.0084L19.733 3.31958C19.7583 1.52006 18.3199 0.0408047 16.5204 0.0155623L15.4343 0.000327228C13.6348 -0.0249151 12.1555 1.41342 12.1303 3.21293L12.0084 11.9018L3.31958 11.7799C1.52006 11.7546 0.0408047 13.193 0.0155623 14.9925L0.000327228 16.0786C-0.0249151 17.8781 1.41342 19.3574 3.21293 19.3826L11.9018 19.5045L11.7799 28.1933C11.7546 29.9928 13.193 31.4721 14.9925 31.4973L16.0786 31.5126C17.8781 31.5378 19.3574 30.0995 19.3826 28.3L19.5045 19.6111L28.1933 19.733C29.9928 19.7583 31.4721 18.3199 31.4973 16.5204L31.5126 15.4343C31.5378 13.6348 30.0995 12.1555 28.3 12.1303L19.6111 12.0084Z" id="Combined-Shape" fill="url(#gradient_1)" fill-rule="evenodd" stroke="none" />
</svg>