<?xml version="1.0" encoding="UTF-8"?>
<svg width="423px" height="254px" viewBox="0 0 423 254" version="1.1" xmlns="http://www.w3.org/2000/svg" xmlns:xlink="http://www.w3.org/1999/xlink">
    <!-- Generator: Sketch 55.1 (78136) - https://sketchapp.com -->
    <title>Logo (Dark BG)</title>
    <desc>Created with Sketch.</desc>
    <defs>
        <linearGradient x1="0%" y1="49.1176591%" x2="101.999998%" y2="50.8999877%" id="linearGradient-1">
            <stop stop-color="#FAAC39" offset="0%"></stop>
            <stop stop-color="#E3209C" offset="100%"></stop>
        </linearGradient>
        <linearGradient x1="2.44820263%" y1="2.42420066%" x2="123.107123%" y2="83.7301721%" id="linearGradient-2">
            <stop stop-color="#DA1AE6" offset="0%"></stop>
            <stop stop-color="#140CF7" offset="100%"></stop>
        </linearGradient>
        <linearGradient x1="0%" y1="11.71875%" x2="121.685048%" y2="100.8597%" id="linearGradient-3">
            <stop stop-color="#FFCC23" offset="0%"></stop>
            <stop stop-color="#E3209C" offset="94.1067558%"></stop>
            <stop stop-color="#E115A3" offset="100%"></stop>
        </linearGradient>
        <linearGradient x1="106.481982%" y1="59.2419392%" x2="-7.35198796%" y2="42.7107438%" id="linearGradient-4">
            <stop stop-color="#1D5279" offset="0%"></stop>
            <stop stop-color="#0F2B45" offset="100%"></stop>
        </linearGradient>
        <path d="M325,136 L315.542576,144 L270,144 L270,136 L325,136 Z M309.631686,149 L305.03391,152.889242 L316.339068,157 L270,157 L270,149 L309.631686,149 Z" id="path-5"></path>
        <linearGradient x1="0%" y1="0%" x2="97.6494292%" y2="96.6920827%" id="linearGradient-6">
            <stop stop-color="#0FE6F1" offset="0%"></stop>
            <stop stop-color="#CFF968" offset="100%"></stop>
        </linearGradient>
        <linearGradient x1="99.1374639%" y1="50%" x2="0%" y2="50%" id="linearGradient-7">
            <stop stop-color="#FFFFFF" offset="0%"></stop>
            <stop stop-color="#FFFFFF" offset="40.0299012%"></stop>
            <stop stop-color="#B5F829" offset="44.8825793%"></stop>
            <stop stop-color="#15F2F3" offset="55.5045952%"></stop>
            <stop stop-color="#FFFFFF" offset="60.6309638%"></stop>
            <stop stop-color="#FFFFFF" offset="100%"></stop>
        </linearGradient>
        <linearGradient x1="106.481982%" y1="51.5004557%" x2="-7.35198796%" y2="48.816568%" id="linearGradient-8">
            <stop stop-color="#1D5279" offset="0%"></stop>
            <stop stop-color="#0F2B45" offset="100%"></stop>
        </linearGradient>
        <rect id="path-9" x="0" y="13" width="52" height="8"></rect>
        <linearGradient x1="106.481982%" y1="51.4443689%" x2="-7.35198796%" y2="48.8608046%" id="linearGradient-10">
            <stop stop-color="#1D5279" offset="0%"></stop>
            <stop stop-color="#0F2B45" offset="100%"></stop>
        </linearGradient>
        <rect id="path-11" x="73" y="0" width="53" height="8"></rect>
    </defs>
    <g id="Logo-(Dark-BG)" stroke="none" stroke-width="1" fill="none" fill-rule="evenodd">
        <path d="M73.9450549,117 C72.5531066,117 71.3809571,116.516672 70.4285714,115.55 C69.4761857,114.583328 69,113.393597 69,111.980769 L69,64.1307692 C69,62.7179417 69.4761857,61.5096204 70.4285714,60.5057692 C71.3809571,59.5019181 72.5531066,59 73.9450549,59 C75.4102637,59 76.6190429,59.4833285 77.5714286,60.45 C78.5238143,61.4166715 79,62.6435823 79,64.1307692 L79,111.980769 C79,113.393597 78.5054995,114.583328 77.5164835,115.55 C76.5274676,116.516672 75.3370033,117 73.9450549,117 Z M133.18932,118 C125.522615,118 118.712004,116.310138 112.757282,112.930362 C106.802559,109.550587 102.187719,104.833828 98.9126214,98.7799443 C95.6375241,92.7260607 94,85.8366217 94,78.1114206 C94,70.2376579 95.711957,63.2553694 99.1359223,57.1643454 C102.559888,51.0733214 107.230553,46.3565627 113.148058,43.0139276 C119.065564,39.6712925 125.634268,38 132.854369,38 C138.660223,38 143.740269,38.7056568 148.09466,40.1169916 C152.449051,41.5283265 156.635902,43.4967376 160.65534,46.0222841 C161.250812,46.3194072 161.771842,46.8393649 162.218447,47.5821727 C162.665051,48.3249805 162.88835,49.1420568 162.88835,50.0334262 C162.88835,51.2961994 162.46036,52.3732546 161.604369,53.264624 C160.748378,54.1559933 159.613276,54.6016713 158.199029,54.6016713 C157.380255,54.6016713 156.598709,54.4159721 155.854369,54.0445682 C152.35597,51.9647064 148.857623,50.4048334 145.359223,49.3649025 C141.860824,48.3249716 138.064745,47.8050139 133.970874,47.8050139 C128.313888,47.8050139 123.215233,48.9934886 118.674757,51.3704735 C114.134282,53.7474585 110.58011,57.2200329 108.012136,61.7883008 C105.444162,66.3565688 104.160194,71.7975543 104.160194,78.1114206 C104.160194,83.9053214 105.369729,89.0863281 107.788835,93.6545961 C110.207941,98.2228641 113.706288,101.825428 118.283981,104.462396 C122.861673,107.099363 128.276668,108.417827 134.529126,108.417827 C141.525925,108.417827 148.038805,106.783675 154.067961,103.51532 L154.067961,83.3481894 L135.645631,83.3481894 C134.380253,83.3481894 133.300975,82.9025114 132.407767,82.0111421 C131.514559,81.1197727 131.067961,80.0427175 131.067961,78.7799443 C131.067961,77.517171 131.514559,76.4401159 132.407767,75.5487465 C133.300975,74.6573772 134.380253,74.2116992 135.645631,74.2116992 L157.640777,74.2116992 C159.129457,74.2116992 160.394817,74.7316568 161.436893,75.7715877 C162.47897,76.8115187 163,78.074273 163,79.5598886 L163,104.852368 C163,106.412264 162.609227,107.805008 161.82767,109.030641 C161.046113,110.256274 160.02266,111.166199 158.757282,111.760446 C150.42067,115.920169 141.898102,118 133.18932,118 Z M188.06135,117 C186.636666,117 185.436951,116.515764 184.462168,115.547278 C183.487384,114.578792 183,113.386827 183,111.971347 L183,44.1404011 C183,42.7249213 183.487384,41.5143317 184.462168,40.508596 C185.436951,39.5028603 186.636666,39 188.06135,39 L233.163599,39 C234.513299,39 235.656778,39.4656114 236.59407,40.3968481 C237.531361,41.3280849 238,42.4641767 238,43.8051576 C238,45.1461385 237.531361,46.2636058 236.59407,47.1575931 C235.656778,48.0515804 234.513299,48.4985673 233.163599,48.4985673 L193.235174,48.4985673 L193.235174,73.1948424 L229.114519,73.1948424 C230.464219,73.1948424 231.607698,73.6604538 232.54499,74.5916905 C233.482281,75.5229273 233.95092,76.6590191 233.95092,78 C233.95092,79.3409809 233.482281,80.4584483 232.54499,81.3524355 C231.607698,82.2464228 230.464219,82.6934097 229.114519,82.6934097 L193.235174,82.6934097 L193.235174,107.501433 L233.163599,107.501433 C234.513299,107.501433 235.656778,107.967044 236.59407,108.898281 C237.531361,109.829518 238,110.965609 238,112.30659 C238,113.647571 237.531361,114.765039 236.59407,115.659026 C235.656778,116.553013 234.513299,117 233.163599,117 L188.06135,117 Z M259.012953,118 C257.601893,118 256.413649,117.516483 255.448187,116.549435 C254.482724,115.582387 254,114.392192 254,112.978814 L254,46.3644068 C254,44.3559222 254.70552,42.6264197 256.11658,41.1758475 C257.527641,39.7252752 259.235741,39 261.240933,39 L264.917098,39 C266.402425,39 267.757766,39.4463232 268.983161,40.3389831 C270.208555,41.2316429 271.118304,42.3474509 271.712435,43.6864407 L297,106.841808 L322.287565,43.6864407 C322.881696,42.3474509 323.791445,41.2316429 325.016839,40.3389831 C326.242234,39.4463232 327.597575,39 329.082902,39 L332.759067,39 C334.764259,39 336.472359,39.7252752 337.88342,41.1758475 C339.29448,42.6264197 340,44.3559222 340,46.3644068 L340,112.978814 C340,114.392192 339.517276,115.582387 338.551813,116.549435 C337.586351,117.516483 336.398107,118 334.987047,118 C333.575986,118 332.369176,117.516483 331.36658,116.549435 C330.363985,115.582387 329.862694,114.392192 329.862694,112.978814 L329.862694,49.6002825 L304.129534,113.313559 C303.535403,114.726937 302.588521,115.861342 301.28886,116.716808 C299.989199,117.572274 298.559593,118 297,118 C295.440407,118 294.010801,117.572274 292.71114,116.716808 C291.411479,115.861342 290.464597,114.726937 289.870466,113.313559 L264.137306,49.6002825 L264.137306,112.978814 C264.137306,114.392192 263.636015,115.582387 262.63342,116.549435 C261.630824,117.516483 260.424014,118 259.012953,118 Z" id="iGEM-Copy" fill="#FFFFFF"></path>
        <path d="M71.208589,211 C70.586909,211 70.0633968,210.782715 69.6380368,210.348138 C69.2126768,209.91356 69,209.378704 69,208.743553 L69,178.30659 C69,177.671439 69.2126768,177.128226 69.6380368,176.676934 C70.0633968,176.225642 70.586909,176 71.208589,176 L90.8895706,176 C91.4785306,176 91.9775031,176.208928 92.3865031,176.626791 C92.7955031,177.044653 93,177.554438 93,178.15616 C93,178.757883 92.7955031,179.25931 92.3865031,179.660458 C91.9775031,180.061607 91.4785306,180.262178 90.8895706,180.262178 L73.4662577,180.262178 L73.4662577,191.34384 L89.1226994,191.34384 C89.7116594,191.34384 90.2106319,191.552768 90.6196319,191.97063 C91.0286319,192.388493 91.2331288,192.898278 91.2331288,193.5 C91.2331288,194.101722 91.0286319,194.60315 90.6196319,195.004298 C90.2106319,195.405446 89.7116594,195.606017 89.1226994,195.606017 L73.4662577,195.606017 L73.4662577,206.737822 L90.8895706,206.737822 C91.4785306,206.737822 91.9775031,206.946751 92.3865031,207.364613 C92.7955031,207.782476 93,208.292261 93,208.893983 C93,209.495705 92.7955031,209.997133 92.3865031,210.398281 C91.9775031,210.799429 91.4785306,211 90.8895706,211 L71.208589,211 Z M103.209091,211 C102.58727,211 102.063638,210.78426 101.638182,210.352774 C101.212725,209.921288 101,209.390235 101,208.759602 L101,178.290185 C101,177.659551 101.212725,177.120201 101.638182,176.672119 C102.063638,176.224038 102.58727,176 103.209091,176 L114.647273,176 C119.098204,176 122.436353,176.929341 124.661818,178.788051 C126.887284,180.646761 128,183.086282 128,186.106686 C128,188.098161 127.451824,189.915355 126.355455,191.558321 C125.259085,193.201288 123.663647,194.387858 121.569091,195.118065 C123.925466,195.748699 125.537268,197.233985 126.404545,199.573969 C127.271823,201.913952 127.705455,204.212412 127.705455,206.469417 L127.705455,208.759602 C127.705455,209.390235 127.492729,209.921288 127.067273,210.352774 C126.641816,210.78426 126.118185,211 125.496364,211 C124.809087,211 124.260911,210.792558 123.851818,210.377667 C123.442725,209.962776 123.238182,209.423427 123.238182,208.759602 L123.238182,207.266003 C123.238182,205.60644 123.090911,204.071368 122.796364,202.66074 C122.501817,201.250111 121.798187,199.988863 120.685455,198.876956 C119.572722,197.765049 117.887284,197.209104 115.629091,197.209104 L105.467273,197.209104 L105.467273,208.759602 C105.467273,209.390235 105.246366,209.921288 104.804545,210.352774 C104.362725,210.78426 103.830912,211 103.209091,211 Z M113.853261,193 C116.657623,193 118.883144,192.419953 120.529891,191.259843 C122.176639,190.099732 123,188.461953 123,186.346457 C123,184.299202 122.290768,182.729664 120.872283,181.637795 C119.453797,180.545926 117.032626,180 113.608696,180 L105,180 L105,193 L113.853261,193 Z M139.122845,210 C138.263645,210 137.528379,209.692986 136.917026,209.078947 C136.305672,208.464909 136,207.726415 136,206.863442 L136,177.290185 C136,176.659551 136.214797,176.120201 136.644397,175.672119 C137.073996,175.224038 137.602727,175 138.230603,175 C138.85848,175 139.395472,175.224038 139.841595,175.672119 C140.287718,176.120201 140.510776,176.659551 140.510776,177.290185 L140.510776,205.469417 L156.719828,205.469417 C157.347704,205.469417 157.884696,205.693454 158.330819,206.141536 C158.776942,206.589618 159,207.128968 159,207.759602 C159,208.390235 158.776942,208.921288 158.330819,209.352774 C157.884696,209.78426 157.347704,210 156.719828,210 L139.122845,210 Z M164.229102,211 C163.568624,211 163.031994,210.779663 162.619195,210.338983 C162.206396,209.898303 162,209.355935 162,208.711864 C162,208.440677 162.082559,208.101697 162.247678,207.694915 L174.879257,177.084746 C175.143448,176.474573 175.514961,175.974578 175.993808,175.584746 C176.472655,175.194913 177.05882,175 177.752322,175 L178.247678,175 C178.94118,175 179.527345,175.194913 180.006192,175.584746 C180.485039,175.974578 180.856552,176.474573 181.120743,177.084746 L193.752322,207.694915 C193.917441,208.101697 194,208.440677 194,208.711864 C194,209.355935 193.793604,209.898303 193.380805,210.338983 C192.968006,210.779663 192.431376,211 191.770898,211 C191.308563,211 190.887515,210.872883 190.50774,210.618644 C190.127965,210.364406 189.83901,210.016951 189.640867,209.576271 L186.421053,201.644068 L169.578947,201.644068 L166.359133,209.576271 C166.16099,210.016951 165.872035,210.364406 165.49226,210.618644 C165.112485,210.872883 164.691437,211 164.229102,211 Z M171,197 L185,197 L178,181 L171,197 Z M203.29064,211 C202.645864,211 202.102903,210.779663 201.661741,210.338983 C201.220578,209.898303 201,209.355935 201,208.711864 L201,178.355932 C201,177.440673 201.322383,176.652546 201.967159,175.991525 C202.611935,175.330505 203.392442,175 204.308703,175 L204.970443,175 C206.056382,175 206.989597,175.508469 207.770115,176.525424 L227.367816,204.79661 L227.367816,177.338983 C227.367816,176.694912 227.588394,176.14407 228.029557,175.686441 C228.470719,175.228811 229.01368,175 229.658456,175 C230.303233,175 230.854678,175.228811 231.312808,175.686441 C231.770938,176.14407 232,176.694912 232,177.338983 L232,207.694915 C232,208.610174 231.669133,209.389827 231.007389,210.033898 C230.345645,210.677969 229.556655,211 228.640394,211 L228.029557,211 C227.486587,211 226.977561,210.872883 226.502463,210.618644 C226.027365,210.364406 225.637112,210.0339 225.331691,209.627119 L205.632184,181.20339 L205.632184,208.711864 C205.632184,209.355935 205.403122,209.898303 204.944992,210.338983 C204.486861,210.779663 203.935416,211 203.29064,211 Z M256.606796,211 C253.162334,211 250.102494,210.239562 247.427184,208.718663 C244.751874,207.197764 242.67854,205.075223 241.20712,202.350975 C239.735699,199.626727 239,196.52648 239,193.050139 C239,189.506946 239.76914,186.364916 241.307443,183.623955 C242.845747,180.882995 244.944161,178.760453 247.602751,177.256267 C250.26134,175.752082 253.212497,175 256.456311,175 C259.064738,175 261.347078,175.317546 263.303398,175.952646 C265.259719,176.587747 267.140768,177.473532 268.946602,178.610028 C269.214133,178.743733 269.448219,178.977714 269.648867,179.311978 C269.849516,179.646241 269.949838,180.013926 269.949838,180.415042 C269.949838,180.98329 269.757553,181.467965 269.372977,181.869081 C268.988402,182.270197 268.478428,182.470752 267.843042,182.470752 C267.475187,182.470752 267.124058,182.387187 266.789644,182.220056 C265.217899,181.284118 263.646178,180.582175 262.074434,180.114206 C260.502689,179.646237 258.797204,179.412256 256.957929,179.412256 C254.416384,179.412256 252.125684,179.94707 250.085761,181.016713 C248.045837,182.086356 246.449035,183.649015 245.295307,185.704735 C244.14158,187.760456 243.564725,190.208899 243.564725,193.050139 C243.564725,195.657395 244.108139,197.988848 245.194984,200.044568 C246.281829,202.100289 247.85355,203.721443 249.910194,204.908078 C251.966839,206.094713 254.399662,206.688022 257.208738,206.688022 C260.352227,206.688022 263.278304,205.952654 265.987055,204.481894 L265.987055,195.406685 L257.710356,195.406685 C257.141853,195.406685 256.65696,195.20613 256.255663,194.805014 C255.854367,194.403898 255.653722,193.919223 255.653722,193.350975 C255.653722,192.782727 255.854367,192.298052 256.255663,191.896936 C256.65696,191.49582 257.141853,191.295265 257.710356,191.295265 L267.592233,191.295265 C268.261061,191.295265 268.829555,191.529246 269.297735,191.997214 C269.765914,192.465183 270,193.033423 270,193.70195 L270,205.083565 C270,205.785519 269.824435,206.412254 269.473301,206.963788 C269.122167,207.515323 268.662355,207.92479 268.093851,208.192201 C264.348417,210.064076 260.519437,211 256.606796,211 Z M280.208589,210 C279.586909,210 279.063397,209.782715 278.638037,209.348138 C278.212677,208.91356 278,208.378704 278,207.743553 L278,177.30659 C278,176.671439 278.212677,176.128226 278.638037,175.676934 C279.063397,175.225642 279.586909,175 280.208589,175 L299.889571,175 C300.478531,175 300.977503,175.208928 301.386503,175.626791 C301.795503,176.044653 302,176.554438 302,177.15616 C302,177.757883 301.795503,178.25931 301.386503,178.660458 C300.977503,179.061607 300.478531,179.262178 299.889571,179.262178 L282.466258,179.262178 L282.466258,190.34384 L298.122699,190.34384 C298.711659,190.34384 299.210632,190.552768 299.619632,190.97063 C300.028632,191.388493 300.233129,191.898278 300.233129,192.5 C300.233129,193.101722 300.028632,193.60315 299.619632,194.004298 C299.210632,194.405446 298.711659,194.606017 298.122699,194.606017 L282.466258,194.606017 L282.466258,205.737822 L299.889571,205.737822 C300.478531,205.737822 300.977503,205.946751 301.386503,206.364613 C301.795503,206.782476 302,207.292261 302,207.893983 C302,208.495705 301.795503,208.997133 301.386503,209.398281 C300.977503,209.799429 300.478531,210 299.889571,210 L280.208589,210 Z M311.29064,211 C310.645864,211 310.102903,210.779663 309.661741,210.338983 C309.220578,209.898303 309,209.355935 309,208.711864 L309,178.355932 C309,177.440673 309.322383,176.652546 309.967159,175.991525 C310.611935,175.330505 311.392442,175 312.308703,175 L312.970443,175 C314.056382,175 314.989597,175.508469 315.770115,176.525424 L335.367816,204.79661 L335.367816,177.338983 C335.367816,176.694912 335.588394,176.14407 336.029557,175.686441 C336.470719,175.228811 337.01368,175 337.658456,175 C338.303233,175 338.854678,175.228811 339.312808,175.686441 C339.770938,176.14407 340,176.694912 340,177.338983 L340,207.694915 C340,208.610174 339.669133,209.389827 339.007389,210.033898 C338.345645,210.677969 337.556655,211 336.640394,211 L336.029557,211 C335.486587,211 334.977561,210.872883 334.502463,210.618644 C334.027365,210.364406 333.637112,210.0339 333.331691,209.627119 L313.632184,181.20339 L313.632184,208.711864 C313.632184,209.355935 313.403122,209.898303 312.944992,210.338983 C312.486861,210.779663 311.935416,211 311.29064,211 Z" id="ERLANGEN-Copy" fill="url(#linearGradient-1)"></path>
        <polygon id="Polygon" stroke="url(#linearGradient-2)" stroke-width="6" fill-rule="nonzero" transform="translate(83.500000, 145.500000) rotate(30.000000) translate(-83.500000, -145.500000) " points="83.5 131 97.2903195 141.019254 92.0228862 157.230746 74.9771138 157.230746 69.7096805 141.019254"></polygon>
        <polygon id="Triangle" stroke="url(#linearGradient-3)" stroke-width="6" fill-rule="nonzero" transform="translate(331.867523, 144.971014) rotate(20.000000) translate(-331.867523, -144.971014) " points="331.867523 134.471014 343.867523 155.471014 319.867523 155.471014"></polygon>
        <path d="M99.7590017,136 L146,136 L146,144 L103.29075,144 L99.7590017,136 Z M105.498093,149 L146,149 L146,157 L99,157 L106.159643,150.498521 L105.498093,149 Z" id="Combined-Shape" fill="#FFFFFF" fill-rule="nonzero"></path>
        <g id="Combined-Shape" fill-rule="nonzero">
            <use fill="url(#linearGradient-4)" xlink:href="#path-5"></use>
            <use fill="#FFFFFF" xlink:href="#path-5"></use>
        </g>
        <circle id="Oval" stroke="url(#linearGradient-6)" stroke-width="6" fill-rule="nonzero" cx="74.5" cy="40.5" r="7.5"></circle>
        <g id="Group-2" transform="translate(145.000000, 136.000000)">
            <polygon id="Shape" fill="url(#linearGradient-7)" fill-rule="nonzero" points="0 0 59 0 68 13 73 13 126 13 126 21 66 21 57 8 0 8"></polygon>
            <g id="Group"></g>
            <g id="Rectangle" fill-rule="nonzero">
                <use fill="url(#linearGradient-8)" xlink:href="#path-9"></use>
                <use fill="#FFFFFF" xlink:href="#path-9"></use>
            </g>
            <g id="Rectangle" fill-rule="nonzero">
                <use fill="url(#linearGradient-10)" xlink:href="#path-11"></use>
                <use fill="#FFFFFF" xlink:href="#path-11"></use>
            </g>
        </g>
    </g>
</svg>